<?xml version="1.0" standalone="no"?>
<!DOCTYPE svg PUBLIC "-//W3C//DTD SVG 20010904//EN"
 "http://www.w3.org/TR/2001/REC-SVG-20010904/DTD/svg10.dtd">
<svg version="1.0" xmlns="http://www.w3.org/2000/svg"
 width="226.000000pt" height="226.000000pt" viewBox="0 0 226.000000 226.000000"
 preserveAspectRatio="xMidYMid meet">
<metadata>
Created by potrace 1.14, written by Peter Selinger 2001-2017
</metadata>
<g transform="translate(0.000000,226.000000) scale(0.100000,-0.100000)"
fill="#000000" stroke="none">
<path d="M1410 1969 c-42 -68 -97 -195 -109 -254 -7 -33 -15 -66 -17 -72 -2
-9 -39 -12 -141 -11 -123 2 -146 -1 -218 -24 -44 -14 -88 -28 -97 -32 -18 -8
-16 -11 -88 116 -50 88 -114 155 -160 169 -79 24 -93 -15 -29 -76 63 -62 149
-199 149 -239 0 -38 84 -63 109 -32 11 13 17 12 48 0 32 -14 40 -13 97 6 84
29 169 35 275 21 l90 -13 36 29 c20 15 37 37 39 48 2 11 9 47 15 79 12 67 62
180 93 214 l22 22 24 -22 c54 -51 82 -144 82 -275 0 -106 10 -123 70 -123 50
0 55 15 45 134 -11 145 -68 292 -131 332 -14 10 -44 18 -67 20 -23 1 -59 5
-79 9 -34 7 -38 5 -58 -26z"/>
<path d="M394 1815 c-58 -40 -115 -250 -105 -388 1 -21 62 -50 85 -41 19 7 19
9 17 104 -3 87 24 179 70 246 16 24 29 48 29 54 0 6 -16 18 -35 26 -42 17 -36
17 -61 -1z"/>
<path d="M1177 1343 c-4 -3 -7 -18 -7 -33 0 -37 30 -62 72 -58 28 3 33 7 36
32 3 22 -3 34 -20 48 -23 17 -69 24 -81 11z"/>
<path d="M1693 1330 c-31 -13 -30 -50 3 -81 85 -78 239 -393 304 -624 13 -44
28 -86 35 -93 17 -18 73 -18 91 0 14 14 12 26 -17 114 -117 358 -282 662 -374
687 -11 3 -30 2 -42 -3z"/>
<path d="M752 1278 c-22 -22 -13 -45 24 -63 30 -14 41 -15 65 -5 34 15 37 32
9 60 -22 22 -79 27 -98 8z"/>
<path d="M316 1242 c-13 -21 -35 -106 -52 -197 -15 -78 -19 -144 -18 -300 1
-116 6 -211 12 -227 12 -28 56 -44 92 -33 20 6 20 11 13 98 -15 170 -7 372 17
482 36 161 36 163 5 175 -32 12 -62 13 -69 2z"/>
<path d="M900 1075 c-36 -8 -76 -23 -90 -33 -28 -21 -48 -73 -57 -142 -5 -39
-2 -50 21 -77 15 -18 41 -36 59 -42 114 -36 351 -40 420 -7 66 32 132 151 110
199 -17 37 -73 75 -134 93 -80 22 -251 27 -329 9z"/>
<path d="M1690 699 c-25 -5 -137 -13 -250 -19 -181 -9 -488 -37 -795 -71 -129
-15 -169 -46 -110 -85 21 -14 39 -15 93 -10 37 4 128 14 202 22 297 31 449 44
528 44 l82 0 0 -70 c0 -75 19 -110 59 -110 45 0 51 9 51 77 0 76 14 75 31 -2
10 -47 10 -60 -5 -98 -9 -24 -30 -56 -46 -72 l-30 -29 -28 21 c-39 29 -55 84
-49 169 3 46 1 76 -6 83 -18 18 -75 13 -85 -6 -30 -59 -18 -207 22 -265 47
-71 156 -100 222 -59 37 22 75 71 95 121 18 46 17 154 -4 210 -9 24 -14 46
-11 49 2 3 32 7 67 9 34 2 68 9 75 14 18 15 15 52 -6 71 -20 18 -33 19 -102 6z"/>
</g>
</svg>
